<svg id="visual" viewBox="0 0 900 600" width="900" height="600" xmlns="http://www.w3.org/2000/svg" xmlns:xlink="http://www.w3.org/1999/xlink" version="1.1"><rect x="0" y="0" width="900" height="600" fill="#e7eef4"></rect><defs><linearGradient id="grad1_0" x1="33.3%" y1="100%" x2="100%" y2="0%"><stop offset="20%" stop-color="#db5a28" stop-opacity="1"></stop><stop offset="80%" stop-color="#db5a28" stop-opacity="1"></stop></linearGradient></defs><defs><linearGradient id="grad1_1" x1="33.3%" y1="100%" x2="100%" y2="0%"><stop offset="20%" stop-color="#db5a28" stop-opacity="1"></stop><stop offset="80%" stop-color="#e1a2da" stop-opacity="1"></stop></linearGradient></defs><defs><linearGradient id="grad1_2" x1="33.3%" y1="100%" x2="100%" y2="0%"><stop offset="20%" stop-color="#e7eef4" stop-opacity="1"></stop><stop offset="80%" stop-color="#e1a2da" stop-opacity="1"></stop></linearGradient></defs><defs><linearGradient id="grad2_0" x1="0%" y1="100%" x2="66.7%" y2="0%"><stop offset="20%" stop-color="#db5a28" stop-opacity="1"></stop><stop offset="80%" stop-color="#db5a28" stop-opacity="1"></stop></linearGradient></defs><defs><linearGradient id="grad2_1" x1="0%" y1="100%" x2="66.7%" y2="0%"><stop offset="20%" stop-color="#e1a2da" stop-opacity="1"></stop><stop offset="80%" stop-color="#db5a28" stop-opacity="1"></stop></linearGradient></defs><defs><linearGradient id="grad2_2" x1="0%" y1="100%" x2="66.7%" y2="0%"><stop offset="20%" stop-color="#e1a2da" stop-opacity="1"></stop><stop offset="80%" stop-color="#e7eef4" stop-opacity="1"></stop></linearGradient></defs><g transform="translate(900, 600)"><path d="M-297.5 0C-292.9 -57.6 -288.4 -115.3 -257.6 -148.7C-226.8 -182.2 -169.8 -191.4 -122.5 -212.2C-75.2 -232.9 -37.6 -265.2 0 -297.5L0 0Z" fill="#3a2a75"></path><path d="M-198.3 0C-195.3 -38.4 -192.3 -76.9 -171.7 -99.2C-151.2 -121.4 -113.2 -127.6 -81.7 -141.5C-50.1 -155.3 -25.1 -176.8 0 -198.3L0 0Z" fill="#2c1b64"></path><path d="M-99.2 0C-97.6 -19.2 -96.1 -38.4 -85.9 -49.6C-75.6 -60.7 -56.6 -63.8 -40.8 -70.7C-25.1 -77.6 -12.5 -88.4 0 -99.2L0 0Z" fill="#201251"></path></g><g transform="translate(0, 0)"><path d="M297.5 0C268.4 39.5 239.4 78.9 218.2 126C197.1 173.1 183.8 227.8 148.7 257.6C113.7 287.5 56.8 292.5 0 297.5L0 0Z" fill="#3a2a75"></path><path d="M198.3 0C179 26.3 159.6 52.6 145.5 84C131.4 115.4 122.5 151.8 99.2 171.7C75.8 191.6 37.9 195 0 198.3L0 0Z" fill="#2c1b64"></path><path d="M99.2 0C89.5 13.2 79.8 26.3 72.7 42C65.7 57.7 61.3 75.9 49.6 85.9C37.9 95.8 18.9 97.5 0 99.2L0 0Z" fill="#201251"></path></g></svg>